<?xml version="1.0" standalone="no"?>
<!DOCTYPE svg PUBLIC "-//W3C//DTD SVG 20010904//EN"
 "http://www.w3.org/TR/2001/REC-SVG-20010904/DTD/svg10.dtd">
<svg version="1.0" xmlns="http://www.w3.org/2000/svg"
 width="1280.000000pt" height="1280.000000pt" viewBox="0 0 1280.000000 1280.000000"
 preserveAspectRatio="xMidYMid meet">
<metadata>
Created by potrace 1.15, written by Peter Selinger 2001-2017
</metadata>
<g transform="translate(0.000000,1280.000000) scale(0.100000,-0.100000)"
fill="#000000" stroke="none">
<path d="M6122 11618 c-264 -8 -517 -37 -857 -97 -304 -55 -791 -209 -1128
-357 -176 -78 -514 -257 -647 -342 -52 -33 -122 -78 -155 -98 -124 -78 -456
-336 -605 -471 -511 -461 -879 -936 -1184 -1527 -264 -510 -477 -1180 -556
-1749 -85 -603 -53 -1303 84 -1881 92 -385 245 -829 401 -1166 305 -655 797
-1283 1420 -1811 201 -170 491 -371 740 -511 571 -321 1311 -578 1890 -657
299 -40 394 -46 770 -46 535 0 873 39 1355 156 223 55 512 157 830 293 588
253 1167 660 1687 1187 200 203 236 245 411 481 211 284 351 502 487 763 32
61 63 119 70 130 23 38 116 260 174 415 135 359 241 742 295 1065 45 268 59
454 60 785 0 429 -22 680 -100 1145 -73 438 -300 1064 -547 1510 -77 140 -245
406 -350 555 -383 546 -920 1048 -1514 1418 -270 169 -479 276 -798 410 -238
99 -372 145 -650 222 -524 144 -995 197 -1583 178z m798 -1157 c283 -44 525
-105 792 -201 360 -129 593 -243 898 -439 471 -304 863 -678 1162 -1111 286
-415 529 -931 648 -1375 96 -358 153 -1047 121 -1450 -26 -320 -99 -654 -227
-1026 -156 -457 -326 -766 -676 -1231 -125 -165 -331 -382 -490 -516 l-86 -73
-114 74 c-316 207 -726 405 -1068 517 -477 157 -897 228 -1410 237 -388 7
-623 -16 -1012 -97 -208 -44 -512 -125 -638 -169 -61 -22 -110 -34 -110 -28 0
6 4 24 10 41 5 17 19 63 30 101 27 89 74 186 102 212 13 11 298 172 633 358
336 186 702 390 815 453 l205 114 90 -48 c135 -71 1548 -853 1592 -881 39 -23
80 -111 119 -252 45 -166 63 -203 114 -240 59 -43 121 -57 184 -42 181 43 242
74 276 141 25 49 27 154 4 208 -10 23 -16 68 -17 119 -1 77 1 84 33 131 42 63
90 94 196 128 159 52 209 143 166 304 -50 185 -84 228 -197 249 -49 9 -108 1
-210 -30 -105 -31 -231 -52 -315 -53 -152 -2 -156 0 -767 338 -422 233 -559
314 -550 322 6 6 253 144 547 307 645 357 609 344 874 308 44 -6 84 -15 90
-21 5 -5 19 -10 29 -10 10 0 50 -10 89 -21 130 -40 282 -12 337 62 25 34 46
89 72 192 18 71 18 81 5 134 -22 82 -66 123 -164 153 -42 13 -84 29 -92 36 -8
6 -25 15 -38 19 -31 9 -95 101 -110 158 -12 48 -6 99 20 172 6 17 13 59 16 93
3 53 0 72 -19 107 -24 45 -102 105 -138 105 -11 0 -32 5 -48 11 -92 38 -240
27 -313 -23 -48 -32 -90 -92 -90 -129 0 -12 -7 -42 -15 -68 -8 -25 -24 -77
-36 -115 -11 -37 -36 -94 -54 -125 l-34 -57 -713 -396 c-392 -218 -749 -415
-793 -439 -44 -23 -89 -48 -100 -55 -11 -8 -26 -14 -34 -14 -8 0 -385 206
-839 458 l-824 457 -33 56 c-18 31 -42 85 -53 120 -42 130 -52 168 -52 190 0
23 -33 83 -60 109 -9 8 -34 24 -55 35 -50 26 -183 27 -232 2 -18 -10 -42 -17
-54 -17 -39 0 -110 -51 -142 -102 -22 -35 -23 -146 -2 -207 41 -116 28 -204
-42 -281 -25 -28 -50 -50 -56 -50 -6 0 -18 -6 -26 -13 -9 -7 -52 -24 -96 -37
-100 -31 -145 -73 -165 -154 -13 -57 -12 -75 15 -171 9 -33 19 -71 22 -85 17
-71 95 -128 187 -137 58 -5 199 20 261 47 66 29 264 42 370 25 38 -6 179 -80
600 -313 302 -168 556 -310 562 -316 10 -9 -121 -86 -550 -323 -494 -274 -571
-314 -635 -328 -92 -19 -153 -19 -216 0 -27 8 -67 15 -88 15 -22 0 -48 5 -59
10 -38 21 -173 50 -229 50 -104 0 -198 -42 -227 -102 -36 -72 -73 -202 -73
-253 0 -100 60 -168 182 -207 106 -35 156 -67 197 -128 31 -45 33 -53 33 -133
-1 -58 -6 -95 -16 -116 -11 -19 -16 -57 -16 -106 0 -119 45 -176 167 -210 35
-10 60 -21 58 -25 -3 -5 -42 -27 -88 -50 -135 -70 -213 -117 -414 -252 l-193
-130 -87 75 c-113 95 -404 390 -483 487 -261 322 -394 522 -531 799 -100 202
-182 408 -265 666 -50 155 -125 439 -138 525 -63 400 -70 500 -63 835 3 149
11 313 17 365 11 106 46 319 59 365 5 17 17 66 26 110 36 167 127 457 212 675
90 233 268 570 413 785 542 803 1405 1429 2328 1690 300 84 393 102 712 135
267 28 890 23 1090 -9z"/>
<path d="M6365 10040 c-139 -15 -333 -56 -377 -80 -10 -6 -23 -10 -30 -10 -13
0 -150 -68 -223 -111 -27 -16 -77 -42 -110 -58 -33 -16 -74 -44 -91 -63 -50
-52 -122 -116 -169 -148 -37 -25 -105 -108 -105 -127 0 -5 -66 -91 -80 -103
-48 -43 -200 -339 -200 -389 0 -10 -7 -26 -15 -37 -8 -10 -15 -30 -15 -44 0
-14 -7 -38 -16 -55 -25 -46 -38 -181 -38 -405 -1 -222 14 -377 38 -412 9 -12
16 -32 16 -44 0 -12 7 -35 15 -50 8 -16 15 -38 15 -50 0 -11 4 -24 9 -30 5 -5
28 -54 51 -109 24 -55 59 -124 79 -154 20 -30 41 -63 47 -73 6 -11 22 -31 36
-46 13 -15 36 -46 51 -70 15 -23 50 -65 78 -93 58 -59 111 -138 130 -194 8
-26 15 -127 18 -290 6 -271 9 -283 70 -348 29 -32 230 -133 354 -178 45 -16
96 -36 112 -43 17 -8 62 -28 100 -45 39 -18 78 -36 87 -41 10 -6 23 -10 30
-10 7 0 27 -8 43 -17 29 -16 75 -25 202 -39 70 -8 242 11 288 31 17 7 68 30
115 50 47 21 99 44 117 51 69 31 178 74 187 74 5 0 43 16 85 36 304 144 300
137 301 464 1 218 8 279 44 363 9 20 21 37 26 37 6 0 10 5 10 11 0 7 31 45 70
85 38 40 82 92 97 116 15 23 48 70 73 103 57 76 180 321 180 358 0 9 4 18 9
21 5 4 12 24 16 47 4 22 13 53 21 67 8 15 14 39 14 53 0 14 7 48 15 75 22 71
22 517 0 588 -8 27 -15 60 -15 72 0 13 -6 38 -14 56 -7 18 -22 60 -31 93 -23
77 -36 107 -103 243 -30 61 -59 112 -64 112 -4 0 -8 5 -8 11 0 7 -19 35 -43
63 -23 28 -55 70 -70 94 -40 61 -54 77 -127 137 -36 30 -93 80 -126 112 -34
32 -81 68 -105 81 -24 12 -71 38 -104 57 -33 19 -74 42 -92 50 -17 8 -34 19
-38 25 -3 5 -15 10 -25 10 -10 0 -31 6 -47 14 -84 41 -131 54 -368 100 -84 17
-268 19 -400 6z m-410 -1246 c11 -6 38 -20 60 -30 44 -21 88 -49 123 -79 26
-22 110 -127 130 -162 60 -108 73 -311 28 -430 -34 -91 -143 -229 -206 -261
-14 -7 -41 -21 -60 -32 -74 -40 -133 -53 -235 -53 -95 -1 -191 19 -219 44 -6
5 -18 9 -27 9 -10 0 -24 6 -31 13 -7 6 -32 25 -55 41 -47 31 -106 99 -117 133
-4 11 -13 24 -21 27 -8 3 -15 14 -15 24 0 10 -4 22 -9 28 -5 5 -19 36 -30 69
-25 72 -29 215 -6 255 8 14 14 37 15 52 0 15 7 33 15 42 8 8 15 19 15 25 0 21
62 101 129 163 68 65 152 114 226 132 37 9 270 1 290 -10z m1400 6 c86 -19
112 -28 165 -61 62 -37 190 -172 205 -215 5 -16 16 -35 22 -42 7 -7 13 -23 13
-35 1 -12 7 -33 15 -47 20 -35 20 -215 0 -254 -8 -15 -15 -35 -15 -42 0 -45
-160 -264 -192 -264 -6 0 -21 -9 -35 -20 -14 -11 -34 -20 -44 -20 -9 0 -19 -5
-21 -11 -6 -18 -86 -32 -212 -36 -76 -3 -123 0 -129 6 -6 6 -18 11 -26 11 -35
0 -169 77 -217 125 -54 53 -62 66 -120 185 -35 72 -36 80 -37 185 -1 174 46
282 177 408 60 56 162 110 251 130 35 8 159 6 200 -3z m-771 -1065 c14 -14 35
-47 48 -75 13 -27 26 -50 30 -50 5 0 8 -6 8 -14 0 -8 6 -21 13 -28 7 -7 30
-41 50 -74 50 -83 51 -132 4 -168 -33 -26 -36 -26 -212 -26 -174 0 -179 1
-210 25 -61 46 -54 89 40 235 23 36 53 87 66 114 13 26 34 57 48 67 34 27 85
25 115 -6z"/>
</g>
</svg>
